<svg width="88" height="88" viewBox="0 0 88 88" fill="none" xmlns="http://www.w3.org/2000/svg">
<path d="M13.333 30.5185V20.6666C13.333 16.0029 17.1137 12.2222 21.7775 12.2222H31.1602" stroke="#757F8A" stroke-width="3.33333" stroke-linecap="round"/>
<path d="M13.333 57.7286V67.5805C13.333 72.2442 17.1137 76.0249 21.7775 76.0249H31.1602" stroke="#757F8A" stroke-width="3.33333" stroke-linecap="round"/>
<path d="M76.666 30.5185V20.6666C76.666 16.0029 72.8853 12.2222 68.2216 12.2222H58.8389" stroke="#757F8A" stroke-width="3.33333" stroke-linecap="round"/>
<path d="M76.666 57.7286V67.5805C76.666 72.2442 72.8853 76.0249 68.2216 76.0249H58.8389" stroke="#757F8A" stroke-width="3.33333" stroke-linecap="round"/>
<path d="M55.5554 57.5552L54.1455 58.1818C48.323 60.7696 41.6768 60.7696 35.8543 58.1818L34.4443 57.5552" stroke="#001A34" stroke-opacity="0.5" stroke-width="3.33333" stroke-linecap="round"/>
<path d="M46.3956 34.0986V45.6709C46.3956 47.4436 45.1554 48.9745 43.4213 49.3423L41.9512 49.6542" stroke="#001A34" stroke-opacity="0.5" stroke-width="3.33333" stroke-linecap="round"/>
<path d="M31.6299 34.0986L31.6299 39.6542" stroke="#001A34" stroke-opacity="0.5" stroke-width="3.33333" stroke-linecap="round"/>
<path d="M58.8398 34.0986L58.8398 39.6542" stroke="#001A34" stroke-opacity="0.5" stroke-width="3.33333" stroke-linecap="round"/>
</svg>
